<svg xmlns="http://www.w3.org/2000/svg" width="800" height="600" viewBox="0 0 800 600">
  <defs>
    <linearGradient id="aboutGrad" x1="0%" y1="0%" x2="100%" y2="100%">
      <stop offset="0%" style="stop-color:#2c1810;stop-opacity:1" />
      <stop offset="100%" style="stop-color:#1a1a2e;stop-opacity:1" />
    </linearGradient>
  </defs>
  <rect width="800" height="600" fill="url(#aboutGrad)"/>
  <!-- Декоративные элементы -->
  <circle cx="650" cy="150" r="200" fill="#D4A853" opacity="0.04"/>
  <circle cx="150" cy="450" r="150" fill="#D4A853" opacity="0.04"/>
  <!-- Стол -->
  <ellipse cx="400" cy="420" rx="250" ry="60" fill="#3d2b1f" opacity="0.5"/>
  <rect x="380" y="420" width="40" height="80" fill="#3d2b1f" opacity="0.5" rx="5"/>
  <!-- Чашка кофе -->
  <ellipse cx="400" cy="380" rx="50" ry="15" fill="#D4A853" opacity="0.8"/>
  <path d="M350 380 L350 340 Q350 320 400 320 Q450 320 450 340 L450 380" fill="#2c1810" stroke="#D4A853" stroke-width="2" opacity="0.8"/>
  <ellipse cx="400" cy="340" rx="48" ry="12" fill="#3d2b1f" stroke="#D4A853" stroke-width="1.5" opacity="0.8"/>
  <ellipse cx="400" cy="340" rx="35" ry="8" fill="#6b4423" opacity="0.6"/>
  <!-- Пар от чашки -->
  <path d="M380 320 Q385 300 380 290" stroke="#fff" stroke-width="1.5" fill="none" opacity="0.2"/>
  <path d="M400 315 Q405 295 400 285" stroke="#fff" stroke-width="1.5" fill="none" opacity="0.2"/>
  <path d="M420 320 Q425 300 420 290" stroke="#fff" stroke-width="1.5" fill="none" opacity="0.2"/>
  <!-- Текст -->
  <text x="400" y="200" font-family="Georgia, serif" font-size="36" fill="#D4A853" text-anchor="middle" letter-spacing="3">О РЕСТОРАНЕ</text>
  <text x="400" y="240" font-family="Arial, sans-serif" font-size="14" fill="#fff" text-anchor="middle" opacity="0.5">Изображение: Атмосфера ресторана</text>
</svg>
