<svg xmlns="http://www.w3.org/2000/svg" viewBox="0 0 55 60" width="44" height="48">
  <defs>
    <linearGradient id="gold" x1="0%" y1="0%" x2="100%" y2="100%">
      <stop offset="0%" style="stop-color:#D4A853"/>
      <stop offset="100%" style="stop-color:#C49A3F"/>
    </linearGradient>
  </defs>
  <!-- Чашка кофе (иконка) -->
  <g transform="translate(5, 12)">
    <!-- Тело чашки -->
    <path d="M8,8 L8,28 C8,32 12,36 18,36 L32,36 C38,36 42,32 42,28 L42,8 Z"
          fill="none" stroke="url(#gold)" stroke-width="2.5" stroke-linejoin="round"/>
    <!-- Ручка -->
    <path d="M42,14 C48,14 52,18 52,22 C52,26 48,30 42,30"
          fill="none" stroke="url(#gold)" stroke-width="2.5" stroke-linecap="round"/>
    <!-- Пар -->
    <path d="M18,4 C20,0 22,4 24,0 C26,4 28,0 30,4"
          fill="none" stroke="url(#gold)" stroke-width="1.8" stroke-linecap="round" opacity="0.7"/>
    <!-- Блюдце -->
    <ellipse cx="25" cy="38" rx="22" ry="4" fill="none" stroke="url(#gold)" stroke-width="2" opacity="0.5"/>
  </g>
</svg>
